<svg width="16" height="16" viewBox="0 0 16 16" fill="none" xmlns="http://www.w3.org/2000/svg">
<rect x="3.05176e-05" width="16" height="16" rx="8" fill="#FFE7D5"/>
<path d="M8.00003 15C4.13404 15 1.00003 11.866 1.00003 8C1.00003 4.13401 4.13404 1 8.00003 1C11.866 1 15 4.13401 15 8C15 11.866 11.866 15 8.00003 15ZM8.00003 16C12.4183 16 16 12.4183 16 8C16 3.58172 12.4183 0 8.00003 0C3.58175 0 3.05176e-05 3.58172 3.05176e-05 8C3.05176e-05 12.4183 3.58175 16 8.00003 16Z" fill="#DB2B20"/>
<path fill-rule="evenodd" clip-rule="evenodd" d="M5.99849 4C5.46308 4 5.04472 4.46228 5.09799 4.99504L5.44874 8.50248C5.47698 8.78492 5.71464 9 5.99849 9C6.28233 9 6.52 8.78492 6.54824 8.50248L6.89899 4.99504C6.95226 4.46228 6.5339 4 5.99849 4ZM6.00003 10C5.44775 10 5.00003 10.4477 5.00003 11C5.00003 11.5523 5.44775 12 6.00003 12C6.55232 12 7.00003 11.5523 7.00003 11C7.00003 10.4477 6.55232 10 6.00003 10ZM9.99849 4C9.46308 4 9.04472 4.46228 9.09799 4.99504L9.44874 8.50248C9.47698 8.78492 9.71465 9 9.99849 9C10.2823 9 10.52 8.78492 10.5482 8.50248L10.899 4.99504C10.9523 4.46228 10.5339 4 9.99849 4ZM10 10C9.44775 10 9.00003 10.4477 9.00003 11C9.00003 11.5523 9.44775 12 10 12C10.5523 12 11 11.5523 11 11C11 10.4477 10.5523 10 10 10Z" fill="#DB2B20"/>
</svg>
