<svg width="16" height="16" viewBox="0 0 16 16" fill="none" xmlns="http://www.w3.org/2000/svg">
<rect x="0.500031" y="0.5" width="15" height="15" rx="7.5" stroke="#0B71DD"/>
<path d="M4.25003 6.75C4.25003 4.67893 5.92896 3 8.00003 3C10.0711 3 11.75 4.67893 11.75 6.75C11.75 7.80703 11.3123 8.76236 10.609 9.44365C10.4822 9.56653 10.3845 9.69419 10.3258 9.83045L9.84953 10.9361C9.80016 11.0507 9.68733 11.125 9.56253 11.125C9.73512 11.125 9.87503 11.2649 9.87503 11.4375C9.87503 11.6101 9.73512 11.75 9.56253 11.75C9.73512 11.75 9.87503 11.8899 9.87503 12.0625C9.87503 12.2351 9.73512 12.375 9.56253 12.375L9.42278 12.6545C9.31691 12.8662 9.10049 13 8.86376 13H7.1363C6.89957 13 6.68315 12.8662 6.57728 12.6545L6.43753 12.375C6.26494 12.375 6.12503 12.2351 6.12503 12.0625C6.12503 11.8899 6.26494 11.75 6.43753 11.75C6.26494 11.75 6.12503 11.6101 6.12503 11.4375C6.12503 11.2649 6.26494 11.125 6.43753 11.125C6.31273 11.125 6.1999 11.0507 6.15053 10.9361L5.67423 9.83045C5.61554 9.69419 5.51789 9.56653 5.39105 9.44365C4.68778 8.76236 4.25003 7.80703 4.25003 6.75ZM8.00003 3.625C6.27414 3.625 4.87503 5.02411 4.87503 6.75C4.87503 7.63095 5.23915 8.42632 5.82592 8.99475C5.99003 9.15373 6.14668 9.34742 6.24824 9.58319L6.64318 10.5H9.35688L9.75182 9.58319C9.85338 9.34742 10.01 9.15373 10.1741 8.99475C10.7609 8.42632 11.125 7.63095 11.125 6.75C11.125 5.02411 9.72592 3.625 8.00003 3.625Z" fill="#0B71DD"/>
<path d="M9.35069 5.11141C9.49924 4.96286 9.74008 4.96286 9.88862 5.11141C10.0353 5.25813 10.0371 5.4949 9.89402 5.64383L7.86931 8.17471C7.86639 8.17837 7.86327 8.18185 7.85996 8.18516C7.71142 8.33371 7.47058 8.33371 7.32203 8.18516L5.97985 6.84298C5.8313 6.69443 5.8313 6.45359 5.97985 6.30505C6.12839 6.1565 6.36923 6.1565 6.51778 6.30505L7.57954 7.36681L9.3406 5.12279C9.34374 5.1188 9.3471 5.115 9.35069 5.11141Z" fill="#0B71DD"/>
</svg>
