<svg width="16" height="16" viewBox="0 0 16 16" fill="none" xmlns="http://www.w3.org/2000/svg">
<rect x="3.05176e-05" width="16" height="16" rx="8" fill="#FFF5CC"/>
<path d="M8.00003 15C4.13404 15 1.00003 11.866 1.00003 8C1.00003 4.13401 4.13404 1 8.00003 1C11.866 1 15 4.13401 15 8C15 11.866 11.866 15 8.00003 15ZM8.00003 16C12.4183 16 16 12.4183 16 8C16 3.58172 12.4183 0 8.00003 0C3.58175 0 3.05176e-05 3.58172 3.05176e-05 8C3.05176e-05 12.4183 3.58175 16 8.00003 16Z" fill="#DB8E00"/>
<path d="M7.00157 11C7.00157 10.4477 7.44929 10 8.00157 10C8.55386 10 9.00157 10.4477 9.00157 11C9.00157 11.5523 8.55386 12 8.00157 12C7.44929 12 7.00157 11.5523 7.00157 11Z" fill="#DB8E00"/>
<path d="M7.09953 4.99504C7.04626 4.46228 7.46462 4 8.00003 4C8.53544 4 8.9538 4.46228 8.90053 4.99504L8.54978 8.50248C8.52154 8.78492 8.28387 9 8.00003 9C7.71619 9 7.47852 8.78492 7.45028 8.50248L7.09953 4.99504Z" fill="#DB8E00"/>
</svg>
