<svg width="16" height="16" viewBox="0 0 16 16" fill="none" xmlns="http://www.w3.org/2000/svg">
<rect x="3.05176e-05" width="16" height="16" rx="8" fill="#E7FBD1"/>
<path d="M8.00003 15C4.13404 15 1.00003 11.866 1.00003 8C1.00003 4.13401 4.13404 1 8.00003 1C11.866 1 15 4.13401 15 8C15 11.866 11.866 15 8.00003 15ZM8.00003 16C12.4183 16 16 12.4183 16 8C16 3.58172 12.4183 0 8.00003 0C3.58175 0 3.05176e-05 3.58172 3.05176e-05 8C3.05176e-05 12.4183 3.58175 16 8.00003 16Z" fill="#44AF1D"/>
<path d="M10.9697 4.96967C10.9626 4.97674 10.956 4.98423 10.9498 4.9921L7.47743 9.41674L5.38391 7.32322C5.09101 7.03033 4.61614 7.03033 4.32325 7.32322C4.03035 7.61612 4.03035 8.09099 4.32325 8.38388L6.96969 11.0303C7.26259 11.3232 7.73746 11.3232 8.03035 11.0303C8.03688 11.0238 8.04303 11.0169 8.04879 11.0097L12.041 6.01947C12.3232 5.72582 12.3197 5.25897 12.0304 4.96967C11.7375 4.67678 11.2626 4.67678 10.9697 4.96967Z" fill="#44AF1D"/>
</svg>
